<mxfile host="Electron" modified="2024-07-08T04:26:16.869Z" agent="Mozilla/5.0 (Windows NT 10.0; Win64; x64) AppleWebKit/537.36 (KHTML, like Gecko) draw.io/22.0.2 Chrome/114.0.5735.289 Electron/25.8.4 Safari/537.36" etag="mVomI1jxCmkDyc2Drfvk" version="22.0.2" type="device">
  <diagram name="ページ1" id="NKPZZOQx5-XQ6p6UbQd2">
    <mxGraphModel dx="2469" dy="1589" grid="1" gridSize="10" guides="1" tooltips="1" connect="1" arrows="1" fold="1" page="1" pageScale="1" pageWidth="827" pageHeight="1169" math="0" shadow="0">
      <root>
        <mxCell id="0" />
        <mxCell id="1" parent="0" />
        <mxCell id="0mSqBatTHCEcBpTO_uF6-95" value="lesson5-3" style="rounded=0;whiteSpace=wrap;html=1;" parent="1" vertex="1">
          <mxGeometry x="10" y="830" width="120" height="60" as="geometry" />
        </mxCell>
        <mxCell id="0mSqBatTHCEcBpTO_uF6-96" value="P先生&lt;br&gt;&lt;hr&gt;" style="rounded=0;whiteSpace=wrap;html=1;" parent="1" vertex="1">
          <mxGeometry x="140" y="920" width="120" height="60" as="geometry" />
        </mxCell>
        <mxCell id="0mSqBatTHCEcBpTO_uF6-97" value="Q先生&lt;br&gt;&lt;hr&gt;" style="rounded=0;whiteSpace=wrap;html=1;" parent="1" vertex="1">
          <mxGeometry x="140" y="1080" width="120" height="60" as="geometry" />
        </mxCell>
        <mxCell id="0mSqBatTHCEcBpTO_uF6-98" value="第m回L1セミナー&lt;br&gt;&lt;hr&gt;" style="rounded=0;whiteSpace=wrap;html=1;" parent="1" vertex="1">
          <mxGeometry x="430" y="920" width="120" height="60" as="geometry" />
        </mxCell>
        <mxCell id="0mSqBatTHCEcBpTO_uF6-99" value="第n回L1セミナー&lt;br&gt;&lt;hr&gt;" style="rounded=0;whiteSpace=wrap;html=1;" parent="1" vertex="1">
          <mxGeometry x="430" y="1080" width="120" height="60" as="geometry" />
        </mxCell>
        <mxCell id="0mSqBatTHCEcBpTO_uF6-100" value="Aさん&lt;br&gt;&lt;hr&gt;" style="rounded=0;whiteSpace=wrap;html=1;" parent="1" vertex="1">
          <mxGeometry x="720" y="920" width="120" height="60" as="geometry" />
        </mxCell>
        <mxCell id="0mSqBatTHCEcBpTO_uF6-101" value="Bさん&lt;br&gt;&lt;hr&gt;" style="rounded=0;whiteSpace=wrap;html=1;" parent="1" vertex="1">
          <mxGeometry x="720" y="1080" width="120" height="60" as="geometry" />
        </mxCell>
        <mxCell id="0mSqBatTHCEcBpTO_uF6-102" value="" style="endArrow=none;html=1;rounded=0;exitX=1;exitY=0.5;exitDx=0;exitDy=0;entryX=0;entryY=0.5;entryDx=0;entryDy=0;" parent="1" source="0mSqBatTHCEcBpTO_uF6-96" target="0mSqBatTHCEcBpTO_uF6-98" edge="1">
          <mxGeometry width="50" height="50" relative="1" as="geometry">
            <mxPoint x="460" y="950" as="sourcePoint" />
            <mxPoint x="510" y="900" as="targetPoint" />
          </mxGeometry>
        </mxCell>
        <mxCell id="0mSqBatTHCEcBpTO_uF6-103" value="" style="endArrow=none;html=1;rounded=0;exitX=1;exitY=0.5;exitDx=0;exitDy=0;entryX=0;entryY=0.5;entryDx=0;entryDy=0;" parent="1" edge="1">
          <mxGeometry width="50" height="50" relative="1" as="geometry">
            <mxPoint x="260" y="1109.44" as="sourcePoint" />
            <mxPoint x="430" y="1109.44" as="targetPoint" />
          </mxGeometry>
        </mxCell>
        <mxCell id="0mSqBatTHCEcBpTO_uF6-105" value="講義する" style="text;html=1;align=center;verticalAlign=middle;resizable=0;points=[];autosize=1;strokeColor=none;fillColor=none;" parent="1" vertex="1">
          <mxGeometry x="310" y="950" width="70" height="30" as="geometry" />
        </mxCell>
        <mxCell id="0mSqBatTHCEcBpTO_uF6-106" value="講義する" style="text;html=1;align=center;verticalAlign=middle;resizable=0;points=[];autosize=1;strokeColor=none;fillColor=none;" parent="1" vertex="1">
          <mxGeometry x="310" y="1110" width="70" height="30" as="geometry" />
        </mxCell>
        <mxCell id="0mSqBatTHCEcBpTO_uF6-107" value="" style="endArrow=none;html=1;rounded=0;exitX=1;exitY=0.5;exitDx=0;exitDy=0;entryX=0;entryY=0.5;entryDx=0;entryDy=0;" parent="1" source="0mSqBatTHCEcBpTO_uF6-96" target="0mSqBatTHCEcBpTO_uF6-99" edge="1">
          <mxGeometry width="50" height="50" relative="1" as="geometry">
            <mxPoint x="460" y="950" as="sourcePoint" />
            <mxPoint x="510" y="900" as="targetPoint" />
          </mxGeometry>
        </mxCell>
        <mxCell id="0mSqBatTHCEcBpTO_uF6-108" value="講義する" style="text;html=1;align=center;verticalAlign=middle;resizable=0;points=[];autosize=1;strokeColor=none;fillColor=none;" parent="1" vertex="1">
          <mxGeometry x="290" y="1030" width="70" height="30" as="geometry" />
        </mxCell>
        <mxCell id="0mSqBatTHCEcBpTO_uF6-109" value="" style="endArrow=none;html=1;rounded=0;entryX=0;entryY=0.5;entryDx=0;entryDy=0;exitX=1;exitY=0.5;exitDx=0;exitDy=0;" parent="1" source="0mSqBatTHCEcBpTO_uF6-98" target="0mSqBatTHCEcBpTO_uF6-100" edge="1">
          <mxGeometry width="50" height="50" relative="1" as="geometry">
            <mxPoint x="460" y="930" as="sourcePoint" />
            <mxPoint x="510" y="880" as="targetPoint" />
          </mxGeometry>
        </mxCell>
        <mxCell id="0mSqBatTHCEcBpTO_uF6-110" value="" style="endArrow=none;html=1;rounded=0;entryX=0;entryY=0.5;entryDx=0;entryDy=0;exitX=1;exitY=0.5;exitDx=0;exitDy=0;" parent="1" edge="1">
          <mxGeometry width="50" height="50" relative="1" as="geometry">
            <mxPoint x="550" y="1110" as="sourcePoint" />
            <mxPoint x="720" y="1110" as="targetPoint" />
          </mxGeometry>
        </mxCell>
        <mxCell id="0mSqBatTHCEcBpTO_uF6-111" value="" style="endArrow=none;html=1;rounded=0;exitX=0;exitY=0.5;exitDx=0;exitDy=0;entryX=1;entryY=0.5;entryDx=0;entryDy=0;" parent="1" source="0mSqBatTHCEcBpTO_uF6-101" target="0mSqBatTHCEcBpTO_uF6-98" edge="1">
          <mxGeometry width="50" height="50" relative="1" as="geometry">
            <mxPoint x="560" y="1120" as="sourcePoint" />
            <mxPoint x="560" y="1020" as="targetPoint" />
          </mxGeometry>
        </mxCell>
        <mxCell id="0mSqBatTHCEcBpTO_uF6-112" value="受講する" style="text;html=1;align=center;verticalAlign=middle;resizable=0;points=[];autosize=1;strokeColor=none;fillColor=none;" parent="1" vertex="1">
          <mxGeometry x="585" y="948" width="70" height="30" as="geometry" />
        </mxCell>
        <mxCell id="0mSqBatTHCEcBpTO_uF6-113" value="受講する" style="text;html=1;align=center;verticalAlign=middle;resizable=0;points=[];autosize=1;strokeColor=none;fillColor=none;" parent="1" vertex="1">
          <mxGeometry x="585" y="1030" width="70" height="30" as="geometry" />
        </mxCell>
        <mxCell id="0mSqBatTHCEcBpTO_uF6-114" value="受講する" style="text;html=1;align=center;verticalAlign=middle;resizable=0;points=[];autosize=1;strokeColor=none;fillColor=none;" parent="1" vertex="1">
          <mxGeometry x="600" y="1110" width="70" height="30" as="geometry" />
        </mxCell>
      </root>
    </mxGraphModel>
  </diagram>
</mxfile>
